<?xml version="1.0" encoding="utf-8"?>
<!-- Generator: Adobe Illustrator 16.0.3, SVG Export Plug-In . SVG Version: 6.00 Build 0)  -->
<!DOCTYPE svg PUBLIC "-//W3C//DTD SVG 1.1//EN" "http://www.w3.org/Graphics/SVG/1.1/DTD/svg11.dtd">
<svg version="1.1" id="Layer_1" xmlns="http://www.w3.org/2000/svg" xmlns:xlink="http://www.w3.org/1999/xlink" x="0px" y="0px"
	 width="528px" height="92px" viewBox="67.009 206.546 528 92" enable-background="new 67.009 206.546 528 92" xml:space="preserve"
	>
<g>
	<path fill="#ED2A25" d="M77.223,237.218l8.871,9.055h60.676v-9.055H77.223z"/>
	<path fill="#ED2A25" d="M129.586,289.601h17.184v-9.055h-26.055L129.586,289.601z"/>
	<path fill="#ED2A25" d="M107.84,267.937h38.93v-9.059H98.969L107.84,267.937z"/>
	<path fill="#ED2A25" d="M498.551,243.214c-3.766-4.621-11.168-6.941-19.078-5.66c-7.008,1.133-11.535,5.766-14.565,10.422
		c1.03-11.242,0.297-24.246,0.52-36.289h-17.531v77.984h17.531c1.219-13.043-3.813-34.68,6.961-38.353
		c2.078-0.707,5.203-0.887,7.603,0.13c4.94,2.094,4.641,9.483,4.641,16.729v21.363c5.672,0.301,11.902,0.043,17.789,0.129
		c0.234-7.979,0.129-16.77,0.129-25.223C502.547,255.816,502.535,248.109,498.551,243.214"/>
	<path fill="#ED2A25" d="M195.129,274.476c-3.172,1.512-8.438,1.578-11.32-0.121c-3.063-1.813-5.219-4.902-5.594-9.191
		c-0.691-7.82,2.77-13.527,9.824-14.281c3.984-0.426,7.57,0.728,9.699,2.855C203.406,259.398,201.453,271.464,195.129,274.476
		 M200.227,246.66c-3.695-5.625-8.539-10.109-18.281-9.438c-9.078,0.625-15.242,5.773-18.285,12.543
		c-3.188,7.094-3.445,18.117-0.496,25.953c2.852,7.582,8.695,12.852,16.664,13.781c10.215,1.199,16.145-3.574,20.523-9.435v9.629
		h15.797v-50.858h-15.922V246.66L200.227,246.66z"/>
	<path fill="#ED2A25" d="M315.934,237.093c-9.188,0.523-15.645,4.809-19.742,10.602c-4.184,5.906-5.836,15.188-3.594,23.828
		c1.879,7.223,6.934,13.18,13.594,16.09c7.254,3.168,18.534,2.695,24.487-1.25v-14.84c-2.41,2.004-4.977,4.023-9.358,4.113
		c-4.625,0.102-8.023-1.746-10.129-4.738c-2.621-3.723-2.746-9.672-1.027-13.723c1.668-3.926,5.301-6.801,10.645-6.734
		c3.621,0.043,6.355,1.668,8.332,3.117c0.539,0.391,1.164,1.066,1.539,0.871V240.21
		C326.941,237.937,322.105,236.738,315.934,237.093"/>
	<path fill="#ED2A25" d="M368.793,274.804c-6.484,2.441-13.199-0.805-15.219-5.855c-2.099-5.242-0.81-12.836,2.992-15.941
		c1.354-1.104,3.172-1.969,5.991-2.241c7.802-0.767,12.392,3.767,12.97,10.34C376.164,268.296,373.43,273.062,368.793,274.804
		 M374.781,246.531c-3.728-5.668-8.556-10.09-18.34-9.465c-14.103,0.898-20.996,12.234-20.957,26.281
		c0.043,15.441,8.78,28.91,25.823,25.906c6.552-1.152,10.267-4.91,13.599-9.344v9.784h15.844v-51.012h-15.969V246.531z"/>
	<path fill="#ED2A25" d="M423.512,256.75c-2.776-0.797-6.84-1.742-7.108-4.358c-0.254-2.479,2.434-3.56,4.741-3.738
		c5.898-0.452,10.587,1.813,13.97,3.863c0.444,0.271,0.957,0.737,1.496,0.625c1.219-3.813,2.397-7.656,3.496-11.586
		c-6.457-2.789-13.32-4.97-21.582-4.483c-7.888,0.461-14.091,3.852-16.595,9.094c-0.729,1.526-1.422,4.539-1.371,6.977
		c0.185,9.043,7.681,12.328,15.095,14.324c1.983,0.531,3.938,0.875,5.987,1.617c1.31,0.473,3.871,1.354,4.242,3.488
		c0.57,3.301-2.41,4.521-5.113,4.729c-7.391,0.57-13.379-2.43-17.344-5.354c-0.594-0.439-1.055-1.246-1.867-1.246
		c-1.043,4.44-2.289,8.68-3.496,12.952c6.97,4.324,16.798,6.984,26.945,5.729c9.18-1.129,16.742-6.733,16.719-16.565
		C441.699,261.843,432.332,259.277,423.512,256.75"/>
	<path fill="#ED2A25" d="M266.934,250.445v-11.621h-16.941v50.871h17.848c0.781-12.082-2.484-26.824,4.137-33.184
		c3.125-3.004,10.027-4.461,15.777-2.324c0.563-5.414,1.188-10.777,1.68-16.266C276.93,236.023,270.246,242.746,266.934,250.445"/>
	<path fill="#ED2A25" d="M232.664,212.742c-5.23,0.559-9.168,4.262-8.922,10.199c0.23,5.477,4.574,9.566,9.957,9.555
		c5.273-0.012,9.328-4.078,9.828-8.522C244.32,216.933,239.191,212.042,232.664,212.742"/>
	<path fill="#ED2A25" d="M224.648,239.21v50.483h17.973v-50.87h-17.844C224.625,238.847,224.637,239.027,224.648,239.21"/>
	<path fill="#ED2A25" d="M587.457,237.218l-8.871,9.055h-60.68v-9.055H587.457z"/>
	<path fill="#ED2A25" d="M535.094,289.601h-17.188v-9.055h26.059L535.094,289.601z"/>
	<path fill="#ED2A25" d="M556.84,267.937h-38.93v-9.059h47.801L556.84,267.937z"/>
</g>
</svg>
